<?xml version="1.0" encoding="UTF-8"?>
<svg id="Layer_1" data-name="Layer 1" xmlns="http://www.w3.org/2000/svg" viewBox="0 0 466.5 191.03">
  <defs>
    <style>
      .cls-1 {
        fill: #f4323f;
      }
    </style>
  </defs>
  <g>
    <path class="cls-1" d="M28.97,141.69h-6.67l-1.63,4.51h-1.93l5.71-15.76h2.34l5.71,15.76h-1.9l-1.63-4.51ZM28.38,140.1l-2.74-7.6-2.74,7.6h5.49Z"/>
    <path class="cls-1" d="M45.46,134.25v10.38c0,3.56-2.29,5.87-6.15,5.87-3.06,0-4.94-1.38-5.71-3.63l1.66-.64c.59,1.75,2.04,2.63,4.08,2.63,2.68,0,4.33-1.56,4.33-4.08v-1.18c-.91,1.54-2.47,2.49-4.47,2.49-3.42,0-5.9-2.63-5.9-6.05s2.49-6.05,5.9-6.05c2,0,3.56.95,4.47,2.47v-2.22h1.79ZM43.55,140.15c0-2.59-1.7-4.45-4.13-4.45s-4.19,1.93-4.19,4.45,1.77,4.44,4.15,4.44,4.17-1.86,4.17-4.44Z"/>
    <path class="cls-1" d="M54.04,144.66c1.95,0,3.04-.75,3.63-2.13l1.68,1.02c-.88,1.7-2.54,2.93-5.37,2.93-3.67,0-6.17-2.68-6.17-6.24s2.65-6.26,6.03-6.26c3.61,0,5.9,2.83,5.9,5.99,0,.34-.02.75-.05.97h-9.93c.34,2.22,2.09,3.72,4.29,3.72ZM57.76,139.26c-.29-2.25-1.86-3.61-3.85-3.61s-3.76,1.34-4.13,3.61h7.98ZM51.89,132.39h-1.75l2.97-3.61h1.66l2.93,3.61h-1.75l-2.02-2.43-2.04,2.43Z"/>
    <path class="cls-1" d="M72.88,138.9v7.3h-1.93v-6.96c0-2.22-1.29-3.54-3.42-3.51-2.04,0-3.49,1.47-3.51,3.08v7.39h-1.93v-11.95h1.81v1.75c.77-1.13,2.22-2,4.13-2,3.06,0,4.85,1.93,4.85,4.9Z"/>
    <path class="cls-1" d="M75.19,140.24c0-3.54,2.58-6.21,6.12-6.21,2.88,0,4.83,1.72,5.44,3.72l-1.72.68c-.5-1.65-1.86-2.68-3.67-2.68-2.4,0-4.22,1.84-4.22,4.49s1.81,4.49,4.24,4.49c1.84,0,3.22-1.02,3.72-2.68l1.72.7c-.61,1.95-2.58,3.7-5.49,3.7-3.54,0-6.14-2.63-6.14-6.21Z"/>
    <path class="cls-1" d="M88.38,130.58c0-.88.66-1.52,1.52-1.52s1.52.63,1.52,1.52-.66,1.47-1.52,1.47-1.52-.61-1.52-1.47ZM88.95,134.25h1.93v11.95h-1.93v-11.95Z"/>
    <path class="cls-1" d="M105.5,134.25v11.95h-1.79v-2.29c-.91,1.59-2.47,2.54-4.49,2.54-3.4,0-5.87-2.65-5.87-6.24s2.49-6.1,5.87-6.1c2.02,0,3.58.91,4.49,2.45v-2.31h1.79ZM103.64,140.21c0-2.65-1.7-4.51-4.19-4.51s-4.19,1.95-4.19,4.51,1.79,4.54,4.19,4.54,4.19-1.86,4.19-4.54Z"/>
    <path class="cls-1" d="M125.92,130.44v15.76h-1.61l-8.32-12.38v12.38h-1.93v-15.76h1.61l8.32,12.4v-12.4h1.93Z"/>
    <path class="cls-1" d="M140.63,134.25v11.95h-1.79v-2.29c-.91,1.59-2.47,2.54-4.49,2.54-3.4,0-5.87-2.65-5.87-6.24s2.49-6.1,5.87-6.1c2.02,0,3.58.91,4.49,2.45v-2.31h1.79ZM138.78,140.21c0-2.65-1.7-4.51-4.19-4.51s-4.19,1.95-4.19,4.51,1.79,4.54,4.19,4.54,4.19-1.86,4.19-4.54Z"/>
    <path class="cls-1" d="M143.1,140.24c0-3.54,2.58-6.21,6.12-6.21,2.88,0,4.83,1.72,5.44,3.72l-1.72.68c-.5-1.65-1.86-2.68-3.67-2.68-2.4,0-4.22,1.84-4.22,4.49s1.81,4.49,4.24,4.49c1.84,0,3.22-1.02,3.72-2.68l1.72.7c-.61,1.95-2.58,3.7-5.49,3.7-3.54,0-6.14-2.63-6.14-6.21Z"/>
    <path class="cls-1" d="M156.29,130.58c0-.88.66-1.52,1.52-1.52s1.52.63,1.52,1.52-.66,1.47-1.52,1.47-1.52-.61-1.52-1.47ZM156.86,134.25h1.93v11.95h-1.93v-11.95Z"/>
    <path class="cls-1" d="M161.24,140.24c0-3.58,2.58-6.24,6.21-6.24s6.21,2.65,6.21,6.24-2.58,6.21-6.21,6.21-6.21-2.65-6.21-6.21ZM171.73,140.24c0-2.63-1.72-4.51-4.26-4.51s-4.29,1.88-4.29,4.51,1.75,4.49,4.29,4.49,4.26-1.88,4.26-4.49Z"/>
    <path class="cls-1" d="M186.94,138.9v7.3h-1.93v-6.96c0-2.22-1.29-3.54-3.42-3.51-2.04,0-3.49,1.47-3.51,3.08v7.39h-1.93v-11.95h1.81v1.75c.77-1.13,2.22-2,4.13-2,3.06,0,4.85,1.93,4.85,4.9Z"/>
    <path class="cls-1" d="M201.43,134.25v11.95h-1.79v-2.29c-.91,1.59-2.47,2.54-4.49,2.54-3.4,0-5.87-2.65-5.87-6.24s2.49-6.1,5.87-6.1c2.02,0,3.58.91,4.49,2.45v-2.31h1.79ZM199.57,140.21c0-2.65-1.7-4.51-4.19-4.51s-4.19,1.95-4.19,4.51,1.79,4.54,4.19,4.54,4.19-1.86,4.19-4.54Z"/>
    <path class="cls-1" d="M204.64,129.63h1.93v16.57h-1.93v-16.57Z"/>
    <path class="cls-1" d="M226.29,129.63v16.57h-1.79v-2.2c-.93,1.52-2.52,2.45-4.49,2.45-3.4,0-5.87-2.65-5.87-6.24s2.45-6.21,5.83-6.21c1.9,0,3.45.84,4.4,2.27v-6.64h1.93ZM224.44,140.21c0-2.65-1.7-4.51-4.19-4.51s-4.19,1.95-4.19,4.51,1.79,4.54,4.19,4.54,4.19-1.86,4.19-4.54Z"/>
    <path class="cls-1" d="M234.91,144.66c1.95,0,3.04-.75,3.63-2.13l1.68,1.02c-.88,1.7-2.54,2.93-5.37,2.93-3.67,0-6.17-2.68-6.17-6.24s2.65-6.26,6.03-6.26c3.61,0,5.9,2.83,5.9,5.99,0,.34-.02.75-.05.97h-9.93c.34,2.22,2.09,3.72,4.29,3.72ZM238.63,139.26c-.29-2.25-1.86-3.61-3.85-3.61s-3.76,1.34-4.13,3.61h7.98Z"/>
    <path class="cls-1" d="M259.3,135.02c0,2.79-2,4.6-5.12,4.6h-3.92v6.57h-1.93v-15.76h5.85c3.15,0,5.12,1.79,5.12,4.58ZM257.33,135.02c0-1.7-1.13-2.88-3.24-2.88h-3.83v5.76h3.83c2.11,0,3.24-1.16,3.24-2.88Z"/>
    <path class="cls-1" d="M266.55,144.66c1.95,0,3.04-.75,3.63-2.13l1.68,1.02c-.88,1.7-2.54,2.93-5.37,2.93-3.67,0-6.17-2.68-6.17-6.24s2.65-6.26,6.03-6.26c3.61,0,5.9,2.83,5.9,5.99,0,.34-.02.75-.05.97h-9.93c.34,2.22,2.09,3.72,4.29,3.72ZM270.27,139.26c-.29-2.25-1.86-3.61-3.85-3.61s-3.76,1.34-4.13,3.61h7.98Z"/>
    <path class="cls-1" d="M275.21,142.19v-6.28h-2.18v-1.66h1.25c.73,0,1.07-.36,1.07-1.09v-1.97h1.86v3.06h3.54v1.66h-3.61v6.08c0,1.61.84,2.52,2.38,2.52h1.41v1.7h-1.75c-2.58,0-3.97-1.54-3.97-4.01Z"/>
    <path class="cls-1" d="M288.33,134v1.79c-2.18.02-3.7,1.5-3.7,3.2v7.21h-1.93v-11.95h1.81v1.75c.77-1.11,2.13-2,3.81-2Z"/>
    <path class="cls-1" d="M289.01,140.24c0-3.58,2.58-6.24,6.21-6.24s6.21,2.65,6.21,6.24-2.58,6.21-6.21,6.21-6.21-2.65-6.21-6.21ZM299.51,140.24c0-2.63-1.72-4.51-4.26-4.51s-4.29,1.88-4.29,4.51,1.75,4.49,4.29,4.49,4.26-1.88,4.26-4.49ZM292.55,131.46l4.72-2.97.88,1.41-4.83,2.81-.77-1.25Z"/>
    <path class="cls-1" d="M303.93,129.63h1.93v16.57h-1.93v-16.57Z"/>
    <path class="cls-1" d="M314.45,144.66c1.95,0,3.04-.75,3.63-2.13l1.68,1.02c-.88,1.7-2.54,2.93-5.37,2.93-3.67,0-6.17-2.68-6.17-6.24s2.65-6.26,6.03-6.26c3.61,0,5.9,2.83,5.9,5.99,0,.34-.02.75-.05.97h-9.93c.34,2.22,2.09,3.72,4.29,3.72ZM318.17,139.26c-.29-2.25-1.86-3.61-3.85-3.61s-3.76,1.34-4.13,3.61h7.98Z"/>
    <path class="cls-1" d="M321.77,140.24c0-3.58,2.58-6.24,6.21-6.24s6.21,2.65,6.21,6.24-2.58,6.21-6.21,6.21-6.21-2.65-6.21-6.21ZM332.26,140.24c0-2.63-1.72-4.51-4.26-4.51s-4.29,1.88-4.29,4.51,1.75,4.49,4.29,4.49,4.26-1.88,4.26-4.49Z"/>
    <path class="cls-1" d="M338.29,145.14c0,.41-.14.82-.43,1.43l-.97,1.97h-1.2l1.07-2.2c-.61-.07-1.07-.54-1.07-1.25,0-.75.57-1.31,1.29-1.31s1.32.57,1.32,1.36Z"/>
    <path class="cls-1" d="M27.39,171.65c-4.51,0-7.85-3.38-7.85-8.12s3.36-8.14,7.85-8.14c3.7,0,6.03,2.04,7.1,4.81l-1.86.77c-.88-2.4-2.68-3.74-5.28-3.74-3.38,0-5.83,2.59-5.83,6.33s2.45,6.35,6.03,6.35c3.02,0,5.24-1.88,5.74-5.17h-5.94v-1.5h7.8c0,5.19-3.36,8.41-7.75,8.41Z"/>
    <path class="cls-1" d="M49.04,159.45v11.95h-1.79v-2.29c-.91,1.59-2.47,2.54-4.49,2.54-3.4,0-5.87-2.65-5.87-6.24s2.49-6.1,5.87-6.1c2.02,0,3.58.91,4.49,2.45v-2.31h1.79ZM47.18,165.42c0-2.65-1.7-4.51-4.19-4.51s-4.19,1.95-4.19,4.51,1.79,4.54,4.19,4.54,4.19-1.86,4.19-4.54ZM41.3,157.89l-.79-1.25,4.74-2.97.88,1.41-4.83,2.81Z"/>
    <path class="cls-1" d="M51.16,168.75l1.84-.73c.39,1.22,1.5,1.95,3.15,1.95,1.5,0,2.47-.63,2.47-1.75,0-2.88-6.87-1.59-6.87-5.69,0-2.06,1.7-3.33,4.33-3.33,2.18,0,3.74.88,4.26,2.47l-1.84.72c-.39-1.06-1.25-1.56-2.45-1.56-1.38,0-2.18.61-2.18,1.59,0,2.68,6.92,1.27,6.92,5.65,0,2.27-1.88,3.58-4.72,3.58-2.47,0-4.29-1-4.92-2.9Z"/>
    <path class="cls-1" d="M73.56,169.86c1.95,0,3.04-.75,3.63-2.13l1.68,1.02c-.88,1.7-2.54,2.93-5.37,2.93-3.67,0-6.17-2.68-6.17-6.24s2.65-6.26,6.03-6.26c3.61,0,5.9,2.83,5.9,5.99,0,.34-.02.75-.05.97h-9.93c.34,2.22,2.09,3.72,4.29,3.72ZM77.28,164.46c-.29-2.25-1.86-3.61-3.85-3.61s-3.76,1.34-4.13,3.61h7.98Z"/>
    <path class="cls-1" d="M98.18,167.03c0,2.68-1.84,4.38-5.03,4.38h-6.17v-15.76h6.3c2.83,0,4.35,1.56,4.35,3.83,0,1.63-.98,2.95-2.45,3.58,1.88.59,2.99,2.02,2.99,3.97ZM92.85,157.23h-3.97v5.19h3.88c1.63,0,2.95-1,2.95-2.61,0-1.52-.97-2.59-2.86-2.59ZM96.25,166.89c0-1.84-1.32-2.88-3.36-2.88h-4.01v5.8h4.04c2.11,0,3.33-1.09,3.33-2.93Z"/>
    <path class="cls-1" d="M100.21,155.78c0-.88.66-1.52,1.52-1.52s1.52.63,1.52,1.52-.66,1.47-1.52,1.47-1.52-.61-1.52-1.47ZM100.78,159.45h1.93v11.95h-1.93v-11.95Z"/>
    <path class="cls-1" d="M105.16,165.44c0-3.58,2.58-6.24,6.21-6.24s6.21,2.65,6.21,6.24-2.58,6.21-6.21,6.21-6.21-2.65-6.21-6.21ZM115.65,165.44c0-2.63-1.72-4.51-4.26-4.51s-4.29,1.88-4.29,4.51,1.75,4.49,4.29,4.49,4.26-1.88,4.26-4.49Z"/>
    <path class="cls-1" d="M119.32,165.44c0-3.54,2.58-6.21,6.12-6.21,2.88,0,4.83,1.72,5.44,3.72l-1.72.68c-.5-1.65-1.86-2.68-3.67-2.68-2.4,0-4.22,1.84-4.22,4.49s1.81,4.49,4.24,4.49c1.84,0,3.22-1.02,3.72-2.68l1.72.7c-.61,1.95-2.58,3.7-5.49,3.7-3.54,0-6.14-2.63-6.14-6.21Z"/>
    <path class="cls-1" d="M132.33,165.44c0-3.58,2.58-6.24,6.21-6.24s6.21,2.65,6.21,6.24-2.58,6.21-6.21,6.21-6.21-2.65-6.21-6.21ZM142.83,165.44c0-2.63-1.72-4.51-4.26-4.51s-4.29,1.88-4.29,4.51,1.75,4.49,4.29,4.49,4.26-1.88,4.26-4.49Z"/>
    <path class="cls-1" d="M166.02,164.03v7.37h-1.93v-7.03c0-2.02-1.2-3.47-3.2-3.45-2.02,0-3.27,1.56-3.31,2.95v7.53h-1.93v-7.03c0-2.04-1.2-3.47-3.2-3.45-2,0-3.27,1.56-3.29,2.95v7.53h-1.93v-11.95h1.81v1.77c.73-1.11,2.11-2.02,3.95-2.02,2.06,0,3.42.88,4.08,2.43.61-1.29,2.09-2.43,4.24-2.43,2.99,0,4.69,2.04,4.69,4.83Z"/>
    <path class="cls-1" d="M181.23,165.42c0,3.58-2.49,6.24-5.9,6.24-1.95,0-3.51-.91-4.47-2.43v2.18h-1.79v-16.57h1.93v6.6c.95-1.38,2.49-2.22,4.38-2.22,3.4,0,5.85,2.68,5.85,6.21ZM179.3,165.42c0-2.56-1.79-4.51-4.17-4.51s-4.22,1.86-4.22,4.51,1.75,4.54,4.22,4.54,4.17-1.93,4.17-4.54Z"/>
    <path class="cls-1" d="M194.15,159.45v11.95h-1.84v-1.7c-.79,1.11-2.22,1.95-3.99,1.95-3.06,0-4.76-2-4.76-4.83v-7.37h1.93v7.14c0,2.02,1.29,3.36,3.33,3.33,2.02,0,3.38-1.45,3.4-2.97v-7.51h1.93Z"/>
    <path class="cls-1" d="M196.26,168.75l1.84-.73c.39,1.22,1.5,1.95,3.15,1.95,1.5,0,2.47-.63,2.47-1.75,0-2.88-6.87-1.59-6.87-5.69,0-2.06,1.7-3.33,4.33-3.33,2.18,0,3.74.88,4.26,2.47l-1.84.72c-.39-1.06-1.25-1.56-2.45-1.56-1.38,0-2.18.61-2.18,1.59,0,2.68,6.92,1.27,6.92,5.65,0,2.27-1.88,3.58-4.72,3.58-2.47,0-4.29-1-4.92-2.9Z"/>
    <path class="cls-1" d="M208.81,167.39v-6.28h-2.18v-1.66h1.25c.73,0,1.07-.36,1.07-1.09v-1.97h1.86v3.06h3.54v1.66h-3.61v6.08c0,1.61.84,2.52,2.38,2.52h1.41v1.7h-1.75c-2.58,0-3.97-1.54-3.97-4.01Z"/>
    <path class="cls-1" d="M214.55,156.64l4.72-2.97.88,1.43-4.83,2.81-.77-1.27ZM216.32,159.45h1.93v11.95h-1.93v-11.95Z"/>
    <path class="cls-1" d="M231.94,159.45l-4.88,11.95h-2.18l-4.88-11.95h2.02l3.95,10.04,3.95-10.04h2.02Z"/>
    <path class="cls-1" d="M238.71,169.86c1.95,0,3.04-.75,3.63-2.13l1.68,1.02c-.88,1.7-2.54,2.93-5.37,2.93-3.67,0-6.17-2.68-6.17-6.24s2.65-6.26,6.03-6.26c3.61,0,5.9,2.83,5.9,5.99,0,.34-.02.75-.05.97h-9.93c.34,2.22,2.09,3.72,4.29,3.72ZM242.43,164.46c-.29-2.25-1.86-3.61-3.85-3.61s-3.76,1.34-4.13,3.61h7.98Z"/>
    <path class="cls-1" d="M246.22,155.78c0-.88.66-1.52,1.52-1.52s1.52.63,1.52,1.52-.66,1.47-1.52,1.47-1.52-.61-1.52-1.47ZM246.78,159.45h1.93v11.95h-1.93v-11.95Z"/>
    <path class="cls-1" d="M250.82,168.75l1.84-.73c.39,1.22,1.5,1.95,3.15,1.95,1.5,0,2.47-.63,2.47-1.75,0-2.88-6.87-1.59-6.87-5.69,0-2.06,1.7-3.33,4.33-3.33,2.18,0,3.74.88,4.26,2.47l-1.84.72c-.39-1.06-1.25-1.56-2.45-1.56-1.38,0-2.18.61-2.18,1.59,0,2.68,6.92,1.27,6.92,5.65,0,2.27-1.88,3.58-4.72,3.58-2.47,0-4.29-1-4.92-2.9Z"/>
  </g>
  <path class="cls-1" d="M437.48,111.03c5.34,0,9.67-4.34,9.67-9.68v-35.7c0-1.27-.19-2.55-.67-3.73-1.55-3.82-5.16-6.11-9.01-6.11h0s-55.13.01-55.13.01v9.68c0,5.35,4.34,9.68,9.68,9.68h35.77s0,16.51,0,16.51l-36.59.05c-14.36,0-26.05-11.7-26.07-26.1,0-6.95,2.72-13.48,7.63-18.4,4.92-4.92,11.47-7.63,18.44-7.63l46.28-.05c5.35,0,9.67-4.34,9.67-9.69v-9.68s-55.96.06-55.96.06c-12.13,0-23.54,4.73-32.12,13.3-8.57,8.57-13.29,19.95-13.3,32.06v.02s0,.02,0,.04h0v.05c.06,25.03,20.42,45.37,45.44,45.37l46.27-.06ZM227.8,20.18h-9.68c-5.35,0-9.68,4.33-9.68,9.68v60.17c0,.99-.55,1.94-1.46,2.33-1.25.53-2.61-.06-3.14-1.19l-27.44-58.19c-4.78-10.13-16.35-15.88-27.71-12.79-10.46,2.84-17.54,12.59-17.54,23.43v44.42c0,2.72-2.41,4.88-5.2,4.47-1.54-.22-2.83-1.29-3.49-2.7l-21.66-45.93c-8.17-17.33-27.39-27.53-46.84-23.73-20.24,3.96-34.6,22.08-34.6,42.7v48.25s9.68,0,9.68,0c5.35,0,9.68-4.33,9.68-9.68v-9.7s53.78,0,53.78,0l-6.51-13.81c-1.6-3.39-5.01-5.55-8.75-5.55h-38.52s0-10.24,0-10.24c0-13.61,11.68-24.55,25.55-23.31,8.4.75,15.67,6.2,19.27,13.84l21.49,45.57c4.8,10.19,16.43,15.96,27.85,12.86,10.51-2.85,17.63-12.65,17.63-23.55v-44.41c0-2.67,2.38-4.79,5.13-4.35,1.48.24,2.7,1.28,3.34,2.63l27.36,58.03c4.5,9.54,15.58,14.84,26.26,11.47,9.15-2.89,15.21-11.6,15.21-21.19V20.18ZM246.27,111.09h-9.71V29.84c0-5.33,4.32-9.66,9.66-9.66h59.61c19.63,0,36,15.58,36.3,35.21.3,19.97-15.86,36.32-35.76,36.32h-41.7v-9.71c0-5.33,4.32-9.66,9.66-9.66h31.69c8.92,0,16.47-6.98,16.74-15.9.28-9.26-7.18-16.89-16.39-16.89h-50.44v61.88c0,5.33-4.32,9.66-9.66,9.66Z"/>
</svg>