<?xml version="1.0" encoding="UTF-8"?>
<svg id="Layer_1" data-name="Layer 1" xmlns="http://www.w3.org/2000/svg" viewBox="0 0 466.5 161.94">
  <defs>
    <style>
      .cls-1 {
        fill: #fff;
      }
    </style>
  </defs>
  <g>
    <path class="cls-1" d="M27.21,139.18h-5.02l-1.23,3.4h-1.45l4.3-11.87h1.76l4.3,11.87h-1.43l-1.23-3.4ZM26.77,137.99l-2.07-5.72-2.07,5.72h4.13Z"/>
    <path class="cls-1" d="M39.62,133.58v7.82c0,2.68-1.72,4.42-4.63,4.42-2.3,0-3.72-1.04-4.3-2.73l1.25-.48c.44,1.31,1.54,1.98,3.07,1.98,2.01,0,3.26-1.18,3.26-3.07v-.89c-.68,1.16-1.86,1.88-3.36,1.88-2.58,0-4.44-1.98-4.44-4.56s1.88-4.56,4.44-4.56c1.5,0,2.68.72,3.36,1.86v-1.67h1.35ZM38.19,138.02c0-1.95-1.28-3.35-3.11-3.35s-3.16,1.45-3.16,3.35,1.33,3.35,3.12,3.35,3.14-1.4,3.14-3.35Z"/>
    <path class="cls-1" d="M46.09,141.42c1.47,0,2.29-.56,2.73-1.6l1.26.77c-.67,1.28-1.91,2.2-4.05,2.2-2.77,0-4.64-2.01-4.64-4.7s2-4.71,4.54-4.71c2.71,0,4.44,2.13,4.44,4.51,0,.26-.02.56-.03.73h-7.48c.26,1.67,1.57,2.8,3.23,2.8ZM48.89,137.35c-.22-1.69-1.4-2.71-2.9-2.71s-2.83,1.01-3.11,2.71h6.01ZM44.47,132.18h-1.31l2.24-2.71h1.25l2.2,2.71h-1.31l-1.52-1.83-1.54,1.83Z"/>
    <path class="cls-1" d="M60.28,137.08v5.5h-1.45v-5.24c0-1.67-.97-2.66-2.58-2.65-1.54,0-2.63,1.11-2.65,2.32v5.57h-1.45v-9h1.37v1.31c.58-.85,1.67-1.5,3.11-1.5,2.3,0,3.65,1.45,3.65,3.69Z"/>
    <path class="cls-1" d="M62.02,138.09c0-2.66,1.95-4.68,4.61-4.68,2.17,0,3.64,1.3,4.1,2.8l-1.3.51c-.38-1.25-1.4-2.01-2.77-2.01-1.81,0-3.18,1.38-3.18,3.38s1.37,3.38,3.19,3.38c1.38,0,2.42-.77,2.8-2.02l1.3.53c-.46,1.47-1.95,2.78-4.13,2.78-2.66,0-4.63-1.98-4.63-4.68Z"/>
    <path class="cls-1" d="M71.96,130.81c0-.67.5-1.14,1.14-1.14s1.14.48,1.14,1.14-.5,1.11-1.14,1.11-1.14-.46-1.14-1.11ZM72.38,133.58h1.45v9h-1.45v-9Z"/>
    <path class="cls-1" d="M84.85,133.58v9h-1.35v-1.72c-.68,1.2-1.86,1.91-3.38,1.91-2.56,0-4.42-2-4.42-4.7s1.88-4.59,4.42-4.59c1.52,0,2.7.68,3.38,1.84v-1.74h1.35ZM83.45,138.07c0-2-1.28-3.4-3.16-3.4s-3.16,1.47-3.16,3.4,1.35,3.42,3.16,3.42,3.16-1.4,3.16-3.42Z"/>
    <path class="cls-1" d="M100.23,130.71v11.87h-1.21l-6.27-9.32v9.32h-1.45v-11.87h1.21l6.27,9.34v-9.34h1.45Z"/>
    <path class="cls-1" d="M111.31,133.58v9h-1.35v-1.72c-.68,1.2-1.86,1.91-3.38,1.91-2.56,0-4.42-2-4.42-4.7s1.88-4.59,4.42-4.59c1.52,0,2.7.68,3.38,1.84v-1.74h1.35ZM109.91,138.07c0-2-1.28-3.4-3.16-3.4s-3.16,1.47-3.16,3.4,1.35,3.42,3.16,3.42,3.16-1.4,3.16-3.42Z"/>
    <path class="cls-1" d="M113.17,138.09c0-2.66,1.95-4.68,4.61-4.68,2.17,0,3.64,1.3,4.1,2.8l-1.3.51c-.38-1.25-1.4-2.01-2.77-2.01-1.81,0-3.18,1.38-3.18,3.38s1.37,3.38,3.19,3.38c1.38,0,2.43-.77,2.8-2.02l1.3.53c-.46,1.47-1.95,2.78-4.13,2.78-2.66,0-4.63-1.98-4.63-4.68Z"/>
    <path class="cls-1" d="M123.11,130.81c0-.67.5-1.14,1.14-1.14s1.14.48,1.14,1.14-.49,1.11-1.14,1.11-1.14-.46-1.14-1.11ZM123.53,133.58h1.45v9h-1.45v-9Z"/>
    <path class="cls-1" d="M126.83,138.09c0-2.7,1.95-4.7,4.68-4.7s4.68,2,4.68,4.7-1.95,4.68-4.68,4.68-4.68-2-4.68-4.68ZM134.73,138.09c0-1.98-1.3-3.4-3.21-3.4s-3.23,1.42-3.23,3.4,1.32,3.38,3.23,3.38,3.21-1.42,3.21-3.38Z"/>
    <path class="cls-1" d="M146.19,137.08v5.5h-1.45v-5.24c0-1.67-.97-2.66-2.58-2.65-1.54,0-2.63,1.11-2.65,2.32v5.57h-1.45v-9h1.37v1.31c.58-.85,1.67-1.5,3.11-1.5,2.3,0,3.65,1.45,3.65,3.69Z"/>
    <path class="cls-1" d="M157.1,133.58v9h-1.35v-1.72c-.68,1.2-1.86,1.91-3.38,1.91-2.56,0-4.42-2-4.42-4.7s1.88-4.59,4.42-4.59c1.52,0,2.7.68,3.38,1.84v-1.74h1.35ZM155.7,138.07c0-2-1.28-3.4-3.16-3.4s-3.16,1.47-3.16,3.4,1.35,3.42,3.16,3.42,3.16-1.4,3.16-3.42Z"/>
    <path class="cls-1" d="M159.52,130.1h1.45v12.48h-1.45v-12.48Z"/>
    <path class="cls-1" d="M175.83,130.1v12.48h-1.35v-1.66c-.7,1.14-1.9,1.84-3.38,1.84-2.56,0-4.42-2-4.42-4.7s1.84-4.68,4.39-4.68c1.43,0,2.6.63,3.31,1.71v-5h1.45ZM174.43,138.07c0-2-1.28-3.4-3.16-3.4s-3.16,1.47-3.16,3.4,1.35,3.42,3.16,3.42,3.16-1.4,3.16-3.42Z"/>
    <path class="cls-1" d="M182.32,141.42c1.47,0,2.29-.56,2.73-1.6l1.26.77c-.67,1.28-1.91,2.2-4.05,2.2-2.77,0-4.64-2.01-4.64-4.7s2-4.71,4.54-4.71c2.71,0,4.44,2.13,4.44,4.51,0,.26-.02.56-.03.73h-7.48c.26,1.67,1.57,2.8,3.23,2.8ZM185.12,137.35c-.22-1.69-1.4-2.71-2.9-2.71s-2.83,1.01-3.11,2.71h6.01Z"/>
    <path class="cls-1" d="M200.69,134.16c0,2.1-1.5,3.47-3.86,3.47h-2.95v4.95h-1.45v-11.87h4.41c2.37,0,3.86,1.35,3.86,3.45ZM199.2,134.16c0-1.28-.85-2.17-2.44-2.17h-2.89v4.34h2.89c1.59,0,2.44-.87,2.44-2.17Z"/>
    <path class="cls-1" d="M206.15,141.42c1.47,0,2.29-.56,2.73-1.6l1.26.77c-.67,1.28-1.91,2.2-4.05,2.2-2.77,0-4.64-2.01-4.64-4.7s2-4.71,4.54-4.71c2.71,0,4.44,2.13,4.44,4.51,0,.26-.02.56-.03.73h-7.48c.26,1.67,1.57,2.8,3.23,2.8ZM208.95,137.35c-.22-1.69-1.4-2.71-2.9-2.71s-2.83,1.01-3.11,2.71h6.01Z"/>
    <path class="cls-1" d="M212.67,139.56v-4.73h-1.64v-1.25h.94c.55,0,.8-.27.8-.82v-1.49h1.4v2.31h2.66v1.25h-2.71v4.58c0,1.21.63,1.9,1.79,1.9h1.06v1.28h-1.32c-1.95,0-2.99-1.16-2.99-3.02Z"/>
    <path class="cls-1" d="M222.56,133.39v1.35c-1.64.02-2.78,1.13-2.78,2.41v5.43h-1.45v-9h1.37v1.31c.58-.84,1.61-1.5,2.87-1.5Z"/>
    <path class="cls-1" d="M223.07,138.09c0-2.7,1.95-4.7,4.68-4.7s4.68,2,4.68,4.7-1.95,4.68-4.68,4.68-4.68-2-4.68-4.68ZM230.97,138.09c0-1.98-1.3-3.4-3.21-3.4s-3.23,1.42-3.23,3.4,1.32,3.38,3.23,3.38,3.21-1.42,3.21-3.38ZM225.73,131.48l3.55-2.24.67,1.06-3.64,2.12-.58-.94Z"/>
    <path class="cls-1" d="M234.3,130.1h1.45v12.48h-1.45v-12.48Z"/>
    <path class="cls-1" d="M242.22,141.42c1.47,0,2.29-.56,2.73-1.6l1.26.77c-.67,1.28-1.91,2.2-4.05,2.2-2.77,0-4.64-2.01-4.64-4.7s2-4.71,4.54-4.71c2.71,0,4.44,2.13,4.44,4.51,0,.26-.02.56-.03.73h-7.48c.26,1.67,1.57,2.8,3.23,2.8ZM245.02,137.35c-.22-1.69-1.4-2.71-2.9-2.71s-2.83,1.01-3.11,2.71h6.01Z"/>
    <path class="cls-1" d="M247.74,138.09c0-2.7,1.95-4.7,4.68-4.7s4.68,2,4.68,4.7-1.95,4.68-4.68,4.68-4.68-2-4.68-4.68ZM255.64,138.09c0-1.98-1.3-3.4-3.21-3.4s-3.23,1.42-3.23,3.4,1.32,3.38,3.23,3.38,3.21-1.42,3.21-3.38Z"/>
    <path class="cls-1" d="M260.18,141.78c0,.31-.1.62-.32,1.08l-.73,1.49h-.9l.8-1.66c-.46-.05-.8-.41-.8-.94,0-.56.43-.99.97-.99s.99.43.99,1.02Z"/>
    <path class="cls-1" d="M271.11,142.77c-3.4,0-5.91-2.54-5.91-6.11s2.53-6.13,5.91-6.13c2.78,0,4.54,1.54,5.34,3.62l-1.4.58c-.67-1.81-2.01-2.82-3.98-2.82-2.54,0-4.39,1.95-4.39,4.76s1.84,4.78,4.54,4.78c2.27,0,3.94-1.42,4.32-3.89h-4.47v-1.13h5.87c0,3.91-2.53,6.33-5.84,6.33Z"/>
    <path class="cls-1" d="M287.42,133.58v9h-1.35v-1.72c-.68,1.2-1.86,1.91-3.38,1.91-2.56,0-4.42-2-4.42-4.7s1.88-4.59,4.42-4.59c1.52,0,2.7.68,3.38,1.84v-1.74h1.35ZM286.02,138.07c0-2-1.28-3.4-3.16-3.4s-3.16,1.47-3.16,3.4,1.35,3.42,3.16,3.42,3.16-1.4,3.16-3.42ZM281.59,132.4l-.6-.94,3.57-2.24.67,1.06-3.64,2.12Z"/>
    <path class="cls-1" d="M289.02,140.58l1.38-.55c.29.92,1.13,1.47,2.37,1.47,1.13,0,1.86-.48,1.86-1.31,0-2.17-5.17-1.2-5.17-4.29,0-1.55,1.28-2.51,3.26-2.51,1.64,0,2.82.67,3.21,1.86l-1.38.55c-.29-.8-.94-1.18-1.84-1.18-1.04,0-1.64.46-1.64,1.2,0,2.01,5.21.96,5.21,4.25,0,1.71-1.42,2.7-3.55,2.7-1.86,0-3.23-.75-3.71-2.19Z"/>
    <path class="cls-1" d="M305.89,141.42c1.47,0,2.29-.56,2.73-1.6l1.26.77c-.67,1.28-1.91,2.2-4.05,2.2-2.77,0-4.64-2.01-4.64-4.7s2-4.71,4.54-4.71c2.71,0,4.44,2.13,4.44,4.51,0,.26-.02.56-.03.73h-7.48c.26,1.67,1.57,2.8,3.23,2.8ZM308.69,137.35c-.22-1.69-1.4-2.71-2.9-2.71s-2.83,1.01-3.11,2.71h6.01Z"/>
    <path class="cls-1" d="M324.43,139.28c0,2.01-1.38,3.29-3.79,3.29h-4.64v-11.87h4.75c2.13,0,3.28,1.18,3.28,2.89,0,1.23-.73,2.22-1.84,2.7,1.42.44,2.25,1.52,2.25,2.99ZM320.42,131.91h-2.99v3.91h2.92c1.23,0,2.22-.75,2.22-1.96,0-1.14-.73-1.95-2.15-1.95ZM322.98,139.18c0-1.38-.99-2.17-2.53-2.17h-3.02v4.37h3.04c1.59,0,2.51-.82,2.51-2.2Z"/>
    <path class="cls-1" d="M325.96,130.81c0-.67.49-1.14,1.14-1.14s1.14.48,1.14,1.14-.5,1.11-1.14,1.11-1.14-.46-1.14-1.11ZM326.39,133.58h1.45v9h-1.45v-9Z"/>
    <path class="cls-1" d="M329.69,138.09c0-2.7,1.95-4.7,4.68-4.7s4.68,2,4.68,4.7-1.95,4.68-4.68,4.68-4.68-2-4.68-4.68ZM337.59,138.09c0-1.98-1.3-3.4-3.21-3.4s-3.23,1.42-3.23,3.4,1.31,3.38,3.23,3.38,3.21-1.42,3.21-3.38Z"/>
    <path class="cls-1" d="M340.36,138.09c0-2.66,1.95-4.68,4.61-4.68,2.17,0,3.64,1.3,4.1,2.8l-1.3.51c-.38-1.25-1.4-2.01-2.77-2.01-1.81,0-3.18,1.38-3.18,3.38s1.37,3.38,3.19,3.38c1.38,0,2.43-.77,2.8-2.02l1.3.53c-.46,1.47-1.95,2.78-4.13,2.78-2.66,0-4.63-1.98-4.63-4.68Z"/>
    <path class="cls-1" d="M350.16,138.09c0-2.7,1.95-4.7,4.68-4.7s4.68,2,4.68,4.7-1.95,4.68-4.68,4.68-4.68-2-4.68-4.68ZM358.06,138.09c0-1.98-1.3-3.4-3.21-3.4s-3.23,1.42-3.23,3.4,1.31,3.38,3.23,3.38,3.21-1.42,3.21-3.38Z"/>
    <path class="cls-1" d="M375.53,137.03v5.55h-1.45v-5.29c0-1.52-.9-2.61-2.41-2.6-1.52,0-2.46,1.18-2.49,2.22v5.67h-1.45v-5.29c0-1.54-.9-2.61-2.41-2.6-1.5,0-2.46,1.18-2.48,2.22v5.67h-1.45v-9h1.37v1.33c.55-.84,1.59-1.52,2.97-1.52,1.55,0,2.58.67,3.07,1.83.46-.97,1.57-1.83,3.19-1.83,2.25,0,3.53,1.54,3.53,3.64Z"/>
    <path class="cls-1" d="M386.98,138.07c0,2.7-1.88,4.7-4.44,4.7-1.47,0-2.65-.68-3.36-1.83v1.64h-1.35v-12.48h1.45v4.97c.72-1.04,1.88-1.67,3.29-1.67,2.56,0,4.41,2.02,4.41,4.68ZM385.53,138.07c0-1.93-1.35-3.4-3.14-3.4s-3.18,1.4-3.18,3.4,1.31,3.42,3.18,3.42,3.14-1.45,3.14-3.42Z"/>
    <path class="cls-1" d="M396.71,133.58v9h-1.38v-1.28c-.6.84-1.67,1.47-3.01,1.47-2.3,0-3.59-1.5-3.59-3.64v-5.55h1.45v5.38c0,1.52.97,2.53,2.51,2.51,1.52,0,2.54-1.09,2.56-2.24v-5.65h1.45Z"/>
    <path class="cls-1" d="M398.3,140.58l1.38-.55c.29.92,1.13,1.47,2.37,1.47,1.13,0,1.86-.48,1.86-1.31,0-2.17-5.17-1.2-5.17-4.29,0-1.55,1.28-2.51,3.26-2.51,1.64,0,2.82.67,3.21,1.86l-1.38.55c-.29-.8-.94-1.18-1.84-1.18-1.04,0-1.64.46-1.64,1.2,0,2.01,5.21.96,5.21,4.25,0,1.71-1.42,2.7-3.55,2.7-1.86,0-3.23-.75-3.71-2.19Z"/>
    <path class="cls-1" d="M407.76,139.56v-4.73h-1.64v-1.25h.94c.55,0,.8-.27.8-.82v-1.49h1.4v2.31h2.66v1.25h-2.71v4.58c0,1.21.63,1.9,1.79,1.9h1.06v1.28h-1.31c-1.95,0-2.99-1.16-2.99-3.02Z"/>
    <path class="cls-1" d="M412.08,131.46l3.55-2.24.67,1.08-3.64,2.12-.58-.96ZM413.41,133.58h1.45v9h-1.45v-9Z"/>
    <path class="cls-1" d="M425.17,133.58l-3.67,9h-1.64l-3.67-9h1.52l2.97,7.56,2.97-7.56h1.52Z"/>
    <path class="cls-1" d="M430.28,141.42c1.47,0,2.29-.56,2.73-1.6l1.26.77c-.67,1.28-1.91,2.2-4.05,2.2-2.77,0-4.64-2.01-4.64-4.7s2-4.71,4.54-4.71c2.71,0,4.44,2.13,4.44,4.51,0,.26-.02.56-.03.73h-7.48c.26,1.67,1.57,2.8,3.23,2.8ZM433.08,137.35c-.22-1.69-1.4-2.71-2.9-2.71s-2.83,1.01-3.11,2.71h6.01Z"/>
    <path class="cls-1" d="M435.93,130.81c0-.67.5-1.14,1.14-1.14s1.14.48,1.14,1.14-.49,1.11-1.14,1.11-1.14-.46-1.14-1.11ZM436.36,133.58h1.45v9h-1.45v-9Z"/>
    <path class="cls-1" d="M439.39,140.58l1.38-.55c.29.92,1.13,1.47,2.37,1.47,1.13,0,1.86-.48,1.86-1.31,0-2.17-5.17-1.2-5.17-4.29,0-1.55,1.28-2.51,3.26-2.51,1.64,0,2.82.67,3.21,1.86l-1.38.55c-.29-.8-.94-1.18-1.84-1.18-1.04,0-1.64.46-1.64,1.2,0,2.01,5.21.96,5.21,4.25,0,1.71-1.42,2.7-3.55,2.7-1.86,0-3.23-.75-3.71-2.19Z"/>
  </g>
  <path class="cls-1" d="M437.48,111.03c5.34,0,9.67-4.34,9.67-9.68v-35.7c0-1.27-.19-2.55-.67-3.73-1.55-3.82-5.16-6.11-9.01-6.11h0s-55.13.01-55.13.01v9.68c0,5.35,4.34,9.68,9.68,9.68h35.77s0,16.51,0,16.51l-36.59.05c-14.36,0-26.05-11.7-26.07-26.1,0-6.95,2.72-13.48,7.63-18.4,4.92-4.92,11.47-7.63,18.44-7.63l46.28-.05c5.35,0,9.67-4.34,9.67-9.69v-9.68s-55.96.06-55.96.06c-12.13,0-23.54,4.73-32.12,13.3-8.57,8.57-13.29,19.95-13.3,32.06v.02s0,.02,0,.04h0v.05c.06,25.03,20.42,45.37,45.44,45.37l46.27-.06ZM227.8,20.18h-9.68c-5.35,0-9.68,4.33-9.68,9.68v60.17c0,.99-.55,1.94-1.46,2.33-1.25.53-2.61-.06-3.14-1.19l-27.44-58.19c-4.78-10.13-16.35-15.88-27.71-12.79-10.46,2.84-17.54,12.59-17.54,23.43v44.42c0,2.72-2.41,4.88-5.2,4.47-1.54-.22-2.83-1.29-3.49-2.7l-21.66-45.93c-8.17-17.33-27.39-27.53-46.84-23.73-20.24,3.96-34.6,22.08-34.6,42.7v48.25s9.68,0,9.68,0c5.35,0,9.68-4.33,9.68-9.68v-9.7s53.78,0,53.78,0l-6.51-13.81c-1.6-3.39-5.01-5.55-8.75-5.55h-38.52s0-10.24,0-10.24c0-13.61,11.68-24.55,25.55-23.31,8.4.75,15.67,6.2,19.27,13.84l21.49,45.57c4.8,10.19,16.43,15.96,27.85,12.86,10.51-2.85,17.63-12.65,17.63-23.55v-44.41c0-2.67,2.38-4.79,5.13-4.35,1.48.24,2.7,1.28,3.34,2.63l27.36,58.03c4.5,9.54,15.58,14.84,26.26,11.47,9.15-2.89,15.21-11.6,15.21-21.19V20.18ZM246.27,111.09h-9.71V29.84c0-5.33,4.32-9.66,9.66-9.66h59.61c19.63,0,36,15.58,36.3,35.21.3,19.97-15.86,36.32-35.76,36.32h-41.7v-9.71c0-5.33,4.32-9.66,9.66-9.66h31.69c8.92,0,16.47-6.98,16.74-15.9.28-9.26-7.18-16.89-16.39-16.89h-50.44v61.88c0,5.33-4.32,9.66-9.66,9.66Z"/>
</svg>